<?xml version="1.0" encoding="UTF-8"?>
<svg width="60px" height="66px" viewBox="0 0 60 66" version="1.1" xmlns="http://www.w3.org/2000/svg" xmlns:xlink="http://www.w3.org/1999/xlink">
    <title>Group 2</title>
    <g id="Page-1" stroke="none" stroke-width="1" fill="none" fill-rule="evenodd">
        <g id="Group-2" fill="#C1EBF0">
            <path d="M34.1862576,31.0382892 C31.9839786,33.0331767 30.8837207,35.5716445 30.8837207,38.655452 C30.8837207,41.7199087 31.9786889,44.2372667 34.1703885,46.2128034 C36.3620881,48.1883401 39.1356548,49.1752288 42.4875622,49.1752288 C44.6087324,49.1752288 46.5183146,48.7671037 48.2145455,47.9508535 C49.9107764,47.1346032 51.2543605,45.9717985 52.2435346,44.46068 L52.2435346,51.7136967 C49.2530902,53.5273907 46.0016871,54.4351172 42.4875622,54.4351172 C37.4165019,54.4351172 33.2305849,52.959182 29.928048,50.0073115 C26.6272744,47.055441 24.9751244,43.2714879 24.9751244,38.655452 C24.9751244,34.0200654 26.6272744,30.2185207 29.928048,27.2455403 C33.2305849,24.2725599 37.4165019,22.7860697 42.4875622,22.7860697 C47.5568593,22.7860697 51.7427763,24.2725599 55.0470763,27.2455403 C58.3496132,30.2185207 60,34.0200654 60,38.655452 L60,52.7128996 C60,54.3242902 59.6067989,55.905775 58.8186334,57.4573541 C58.0304679,59.0106924 56.9284468,60.3793189 55.5160965,61.5702702 C52.1818215,64.3708529 47.8389767,65.7711443 42.4875622,65.7711443 C40.2852832,65.7711443 37.8819956,65.5442126 35.2759361,65.0903494 C32.6698766,64.6364861 30.3776727,64.0383717 28.3993244,63.2907287 L30.0655803,58.1539815 C31.8023655,58.8171848 33.8618226,59.3783568 36.2457146,59.830461 C38.6296067,60.2843242 40.7102225,60.5112559 42.4875622,60.5112559 C46.0016871,60.5112559 48.8704684,59.6738957 51.092143,58.0026937 C53.0916501,56.510926 54.0914036,54.7482477 54.0914036,52.7128996 L54.0914036,38.655452 C54.0914036,35.5716445 52.9911458,33.0331767 50.7888668,31.0382892 C48.588351,29.0434018 45.820074,28.0459581 42.4875622,28.0459581 C39.1550504,28.0459581 36.3867733,29.0434018 34.1862576,31.0382892 Z" id="Fill-6"></path>
            <path d="M30.5472637,0 L30.5472637,5.2127299 C16.7510432,5.36226822 5.36167292,16.7060692 5.21366749,30.4477612 L0,30.4477612 C0.151529369,13.7240992 13.7697909,0.147779045 30.5472637,0" id="Fill-20"></path>
            <path d="M30.5472637,11.0447761 L30.5472637,16.0746567 C21.7849095,16.1699597 16.2557987,21.6922392 16.1606515,30.4477612 L11.1442786,30.4477612 C11.2394258,19.7914738 19.890775,11.1400791 30.5472637,11.0447761" id="Fill-22"></path>
        </g>
    </g>
</svg>